Patient4_TMGait_0pt3_01_right_05_EMG.mot
version=1
nRows=33
nColumns=33
inDegrees=no
endheader
time	1LAddLong	2LGlutMax	3LGlutMed	4LIliopsoas	5LSemiMemb	6LBicFemLong	7LRecFem	8LVastMed	9LVastLat	10LGasMed	11LTibAnt	12lTibPost	13LPeroneusLong	14LSol	15LExtDigLong	16LFlexDigLong	17RAddLong	18RGlutMax	19RGlutMed	20RIliopsoas	21RSemiMemb	22RBicFemLong	23RRecFem	24RVastMed	25RVastLat	26RGasMed	27RTibAnt	28RTibPost	29RPeroneusLong	30RSol	31RExtDigLong	32RFlexDigLong
7.78	-0.015717	0.11459	0.039063	-0.004578	0.009003	0.084534	-0.074615	0.018311	-0.15808	0.022888	0.007629	0.001373	-0.008087	0.062561	-0.020599	-0.013275	-0.053558	-0.020294	1.0251	0.041199	-0.0737	-0.021667	0.13001	0.084534	0.016022	0.000305	0.02594	-0.006714	0.030212	-0.066986	0.002441	-0.015106
7.781	-0.015411	0.10239	-0.038605	0.013733	0.003815	0.18677	-0.095215	0.007935	-0.18066	0.025787	0.007324	0.010071	0.042725	0.065613	-0.005188	-0.013275	-0.058899	0.020905	0.93048	0.14404	-0.068665	-0.019684	0.11658	0.078735	0.011597	-0.001526	-0.12238	-0.003204	-0.015869	-0.10269	0.00061	-0.011292
7.782	0.001831	0.1091	-0.092163	0.008087	0.011139	0.21896	-0.089569	-0.002441	-0.29404	0.027008	0.013428	0.003204	0.11612	0.077515	0.010986	-0.010223	-0.009155	0.066071	0.95001	0.16769	-0.056	-0.016479	0.13977	0.091095	0.003815	-0.001373	-0.46387	-0.000153	-0.083313	-0.088806	-0.002594	-0.00946
7.783	0.001221	0.095062	-0.024109	0.005646	0.007019	0.20676	-0.081635	-0.022736	-0.16846	0.023804	0.013428	0.006409	0.16159	0.090027	0.022736	-0.01358	0.007782	0.078735	0.99777	0.09552	-0.035553	-0.031128	0.079651	0.053864	-0.00412	-0.006409	-0.22293	0.002594	-0.1326	-0.10178	-0.001373	-0.010681
7.784	0.013123	0.069733	0.048065	0.008392	0.005798	0.19333	-0.043182	-0.031891	0.001526	0.018616	0.011749	0.007477	0.28671	0.070343	0.040283	-0.013123	0.020294	0.027313	1.0846	0.059967	-0.037079	-0.039368	0.11307	0.066071	0.003967	-0.007935	0.17364	-0.003357	-0.17273	-0.059967	-0.002441	-0.010986
7.785	0.018158	0.074921	0.023041	0.029755	0.018921	0.22537	0.075684	-0.026703	0.098114	0.018921	0.00351	0.002747	-0.20905	0.09201	0.034332	-0.010986	0.013428	0.017548	1.0075	-0.031281	-0.028076	-0.037842	0.14252	0.046997	0.006409	-0.015106	0.26245	-0.003815	-0.086365	-0.020447	0	-0.004272
7.786	0.011139	0.10788	0.047455	0.015869	0.026703	0.11337	0.12634	-0.015564	-0.026703	0.004272	0.006561	0.002594	-0.089722	0.10803	0.011597	-0.016022	0.018158	0.00824	1.0927	-0.15228	-0.025177	-0.029297	0.10468	0.029144	0.001984	-0.002441	0.089722	-0.003967	0.063324	0.007935	-0.001831	-0.003662
7.787	0.019684	0.10696	0.044708	-0.000458	0.02594	0.029144	0.072937	-0.00351	-0.23941	0.006866	0.011139	0.005646	0.015259	0.1033	-0.011292	-0.017548	0.005188	0.05722	1.2498	-0.17639	-0.027161	-0.028839	0.13138	0.046082	-0.005493	-0.007477	0.1503	-0.003204	0.025482	0.031433	0.001373	0.008545
7.788	0.028839	0.047607	0.049286	-0.010376	0.029449	0.030823	0.011902	0.000763	-0.39795	0.007324	0.019379	0.003052	0.019989	0.033264	-0.010529	-0.00946	-0.013123	0.012207	1.05	-0.094299	-0.025024	-0.007019	0.10452	0.030365	0.002289	-0.00473	0.32486	-0.001068	-0.02594	0.048218	-0.003967	0.000458
7.789	0.01358	0.072327	0.06958	-0.003815	0.010223	-0.11093	0.02182	-0.012665	-0.22446	0.03418	0.031891	0.003967	-0.0383	0.068665	0.028687	-0.007629	-0.00885	-0.004425	0.81436	-0.019226	-0.019379	-0.009003	0.12314	-0.008392	0.001526	-0.00412	0.41565	-0.002441	0.032806	-0.016022	-0.001373	0
7.79	0.012512	0.038605	0.021973	0.001373	0.007019	-0.079803	0.049438	-0.00473	-0.020447	0.019684	0.017853	0.003967	-0.023651	0.095978	0.011444	-0.007782	0.002289	0.036316	0.80673	0.00412	-0.025024	-0.018158	0.13626	-0.01297	0.014191	-0.00351	0.22995	-0.002136	0.072784	-0.03952	-0.000916	-0.005951
7.791	-0.015106	0.070496	-0.058441	0.010681	0.016174	-0.15884	0.041046	-0.01236	0.040436	0.028992	-0.002136	0.002747	-0.5545	0.078735	0.038147	-0.007935	-0.024261	0.039825	1.0379	-0.037842	-0.013275	0.004883	0.14114	-0.045776	0.007935	-0.009003	0.29556	-0.004578	0.01236	-0.025482	-0.001221	0.002899
7.792	-0.006104	0.057526	-0.087433	0.013428	0.004425	-0.13107	0.063629	0.000305	0.0914	0.010223	-0.004272	0.000763	0.022736	0.14099	0.070343	-0.010376	0.007019	0.092468	1.0966	0.02655	-0.026855	-0.014648	0.17838	-0.030212	0.007172	-0.014648	0.15366	-0.004578	-0.091553	0.066223	-0.001221	-0.01297
7.793	-0.007629	0.074158	-0.010071	-0.001526	0.014954	-0.15991	0.081329	-0.00061	0.005951	-0.031281	-0.02182	0.01236	0.4097	0.18402	0.10498	-0.00885	0.048981	0.095978	1.2239	0.11749	-0.002594	0.004578	0.1445	0.015564	0.017853	-0.013733	-0.1831	-0.006256	-0.046997	0.043182	-0.00824	-0.012207
7.794	-0.007935	0.097656	-0.003052	0.010529	0.001526	0.050049	0.12833	0.012512	-0.036621	-0.015717	-0.059357	0.002441	0.15976	0.26611	0.054321	-0.01236	0.112	0.098572	1.2294	0.19501	0.017242	0.017395	0.10193	0.049286	0.000458	-0.011444	-0.093842	-0.007019	-0.051727	0.074768	-0.001068	-0.012512
7.795	-0.010223	0.086823	-0.01358	0.005798	0.013428	0.14496	0.092926	0.010986	0.03952	0.029144	-0.066376	-0.001068	-0.046692	0.26138	0.070343	-0.016785	0.15152	0.10284	1.1771	0.17685	0.026245	0.012512	0.19241	0.033875	0.008087	-0.015717	-0.19379	-0.005341	-0.063171	0.054169	-0.003052	-0.004578
7.796	0.001221	0.0737	-0.007629	0.002441	0.011292	-0.035553	0.15427	-0.021973	0.096283	0.034637	-0.035095	0.003052	0.056915	0.22934	-0.10864	-0.007629	0.097198	0.094757	1.1415	0.09613	0.006409	0.001221	0.0914	0.06424	0.004883	-0.007629	-0.34149	0.000763	-0.0177	0.012512	-0.000916	-0.015564
7.797	-0.00946	0.063171	-0.042572	0.005798	-0.044556	-0.12192	0.091705	-0.003662	0.037994	-0.021667	-0.089417	0.001831	-0.29221	0.26245	-0.035706	-0.003662	0.010223	0.089874	1.1475	0.016174	0.005341	0.00351	0.10803	0.036163	0.003357	-0.01236	-0.168	-0.003052	-0.017395	-0.047607	0.000916	-0.01358
7.798	-0.000916	0.048065	-0.057831	-0.004578	0.037384	-0.18234	-0.019989	0.014496	0.09903	-0.01236	-0.003052	0.004272	-0.14145	0.18845	-0.14191	-0.011597	-0.053558	0.090485	1.0506	-0.028534	0.012207	-0.005798	0.11932	0.055237	-0.007324	-0.003815	-0.012817	-0.003815	-0.065765	-0.06012	-0.004425	-0.010071
7.799	0.019836	0.056458	0.037384	-0.010376	0.032043	-0.17777	-0.071716	0.010834	0.007019	0.018463	0.19486	0.003204	0.24826	0.11322	-0.013123	-0.003815	-0.081482	0.12802	0.97885	-0.062866	0.019531	0.000458	0.10346	0.034485	-0.011292	-0.008392	0.010223	-0.004272	-0.10498	-0.045471	0.000458	-0.010071
7.8	0.03418	0.061798	0.027771	-0.002441	0.031281	-0.50613	-0.10849	0.010681	-0.30106	0.014343	0.1532	0.002136	0.12894	-0.045929	0.1062	-0.014343	-0.079803	0.12528	0.93063	-0.02243	0.009766	-0.010834	0.10819	0.018463	-0.018616	-0.010223	-0.033112	-0.000916	-0.11292	-0.029602	-0.001373	-0.000916
7.801	0.010071	0.080109	0.009918	0.005188	0.024719	-0.30045	-0.048065	0.019836	-0.44784	-0.015869	0.099945	0.003967	-0.37994	-0.01358	0.022736	-0.004578	-0.067139	0.14862	1.2213	-0.008087	0.01358	-0.019836	0.13001	-0.051727	-0.002136	-0.008392	-0.075073	-0.001678	-0.007782	-0.043793	0.00885	0
7.802	0.007324	0.088348	-0.047607	0.005188	0.018768	-0.045929	0.002441	0.029755	-0.36224	-0.043182	0.076294	0.006104	-0.020752	-0.040131	-0.26093	0.001526	-0.059357	0.11688	1.0352	0.03479	0.000916	-0.036316	0.13794	-0.039978	-0.019379	-0.00946	0.023651	-0.001068	0.20218	-0.044403	-0.00061	-0.00061
7.803	0.018463	0.071411	-0.024414	-0.00885	0.014038	0.017242	-0.027771	0.005035	-0.1265	0.012054	-0.029755	-0.002899	-0.30441	-0.10162	-0.37079	-0.007629	-0.069885	0.074768	0.86624	0.090637	0.012207	-0.043945	0.11871	-0.016632	-0.007324	-0.011292	-0.032501	-0.003357	0.27115	-0.045166	0.002594	0.005035
7.804	0.020447	0.063477	-0.068512	-0.003815	0.029602	0.059814	0.001831	-0.018005	0.056763	0.041962	-0.09903	0.005341	-0.36697	-0.15564	-0.21698	-0.010071	-0.088196	0.084534	0.77042	0.045166	0.027466	-0.034943	0.090179	0.025787	-0.001984	-0.011597	0.073242	0.005798	-0.39063	-0.079346	0.00061	-0.002594
7.805	0.015259	0.060883	-0.05661	0.012054	0.008087	-0.074921	0.15884	-0.027466	-0.016785	0.001678	-0.19775	0.00412	-0.13626	0.0177	0.20371	-0.010376	-0.10254	0.13092	0.75104	-0.092926	0.039825	-0.051727	0.089569	0.028076	-0.021515	-0.014038	0.048676	-0.002899	-0.20248	-0.073395	-0.001373	0.001984
7.806	0.011139	0.072327	-0.056152	-0.002289	0.030518	-0.12436	0.042267	-0.004272	-0.13031	-0.029907	-0.14572	0.003204	-0.085449	0.23941	0.33829	-0.006561	-0.10895	0.14023	0.77087	-0.15671	0.057526	-0.045471	0.12711	0.027008	-0.014343	-0.016022	0.17227	-0.00061	-0.11108	-0.092163	-0.001678	0.002136
7.807	0.008392	0.055695	0.084534	0.001984	0.012817	-0.081787	-0.041046	0.03952	-0.06012	-0.005188	-0.048218	0.007324	-0.26215	0.21454	0.38574	-0.010223	-0.09079	0.09552	0.79559	-0.13519	0.051422	-0.044403	0.13519	-0.002594	-0.02655	-0.015869	0.31296	-0.002136	-0.15961	-0.12268	0.001526	-0.007782
7.808	0.02182	0.051727	-0.013885	0.002289	0.014648	-0.0354	-0.19608	0.057526	0.068512	-0.005035	0.12405	0.001831	0.23804	0.18494	0.78522	0.00946	-0.048218	0.10452	0.69488	-0.057068	0.068054	-0.037689	0.11688	-0.03891	-0.031586	-0.009003	0.13947	-0.000305	-0.14862	-0.13046	-0.00061	-0.00412
7.809	0.020294	0.059052	-0.036621	0.022888	0.016479	-0.018158	-0.11643	0.054779	0.077209	-0.004272	0.20721	0.000763	0.39078	0.066681	0.10437	0.001221	0.027771	0.11551	0.83908	-0.025635	0.0737	-0.02121	0.12665	0.002747	-0.015411	-0.00885	-0.07843	-0.003967	-0.079956	-0.1297	0.00061	-0.003815
7.81	0.012054	0.062866	-0.024414	-0.009308	-0.002136	-0.021973	0.027008	0.048065	0.052948	-0.023041	0.068207	-0.007019	0.36972	-0.037842	0.13199	-0.012207	0.039368	0.15396	1.1015	-0.005798	0.089417	-0.028839	0.13199	0.042877	-0.019073	-0.009003	-0.28625	-0.003052	0.039673	-0.10544	0.000305	-0.011902
7.811	0.008392	0.065765	-0.010681	-0.027313	0.01709	0.003662	0.06134	0.03952	0.016327	-0.045624	-0.11765	0.001221	-0.079651	-0.013885	-0.45685	-0.000763	0.036316	0.098419	0.87387	-0.05188	0.072937	-0.023651	0.09491	-0.052643	-0.027008	-0.000763	-0.036011	-0.000458	0.14969	-0.10117	-0.001221	-0.001221
7.812	0.023499	0.093231	0.15884	-0.019989	0.00885	-0.005341	0.10956	-0.003357	0.22446	-0.043945	-0.086365	0.013123	-0.15625	0.082245	-0.19424	-0.005646	0.040131	0.084229	0.48508	-0.016479	0.070496	-0.032654	0.12146	-0.064392	-0.043793	-0.003052	0.14923	-0.001373	0.068512	-0.044861	0.000763	-0.02121
